PathFileType	4	(X/Y/Z)	Patient4_TMGait_0pt4_02_left_01.trc.trc
DataRate	CameraRate	NumFrames	NumMarkers	Units	OrigDataRate	OrigDataStartFrame	OrigNumFrames
73.684210526316	73.684210526316	4	33	mm	73.684210526316	53	       141
Frame#	Time	Sacral			L.Shoulder			Chest			R.Shoulder			Neck			R.ASIS			L.ASIS			R.Thigh.Superior			R.Thigh.Lateral			R.Thigh.Inferior			R.Patella			L.Thigh.Superior			L.Thigh.Lateral			L.Thigh.Inferior			L.Patella			L.Shank.Superior			L.Shank.Lateral			L.Shank.Inferior			R.Shank.Superior			R.Shank.Lateral			R.Shank.Inferior			R.Heel			R.Midfoot.Superior			R.Midfoot.Lateral			R.Toe			L.Heel			L.Midfoot.Lateral			L.Midfoot.Superior			L.Toe			L.Elbow			L.Wrist			R.Elbow			R.Wrist			
		X1	Y1	Z1	X2	Y2	Z2	X3	Y3	Z3	X4	Y4	Z4	X5	Y5	Z5	X6	Y6	Z6	X7	Y7	Z7	X8	Y8	Z8	X9	Y9	Z9	X10	Y10	Z10	X11	Y11	Z11	X12	Y12	Z12	X13	Y13	Z13	X14	Y14	Z14	X15	Y15	Z15	X16	Y16	Z16	X17	Y17	Z17	X18	Y18	Z18	X19	Y19	Z19	X20	Y20	Z20	X21	Y21	Z21	X22	Y22	Z22	X23	Y23	Z23	X24	Y24	Z24	X25	Y25	Z25	X26	Y26	Z26	X27	Y27	Z27	X28	Y28	Z28	X29	Y29	Z29	X30	Y30	Z30	X31	Y31	Z31	X32	Y32	Z32	X33	Y33	Z33	

53	1.895714285714	867.032814201918	1002.762153510093	429.871179452323	1046.660653181390	1435.003324754785	239.567777536087	1147.772245338405	1369.427165169891	402.697695814499	1060.686072508793	1442.761430952782	575.215354039910	1026.690669988667	1497.283961738572	395.093595261300	1100.039177726431	949.158938932788	544.285998353034	1080.887787142132	963.654001636126	270.292131112233	1180.100727043453	772.919144877990	516.859799473244	1136.949737047906	652.211834922066	592.480453072875	1226.010526815878	609.870198046912	515.303961708645	1241.195392625346	498.255872025122	539.207934737392	1136.630974547477	753.032127184380	295.061589396647	1048.303279869202	634.169115048130	243.826412292261	1137.835255418529	559.283025540383	303.395810461873	1140.175166522830	489.556890018754	315.104649168594	1111.051529331816	415.994605970871	310.463145612412	1017.795938008559	303.147584738309	261.495037642712	1064.534586521482	192.063274805699	335.860478581183	1165.358823651572	423.800769940209	549.428459914543	1045.367533195697	387.298431720631	615.669145275966	1027.955183244537	277.018528085525	569.454216706551	825.932194404942	218.845689910772	552.610264431995	994.480625562834	154.344524969820	581.312315766286	886.581628339219	154.292863646426	621.021807231939	1058.760882018756	39.410503304353	601.021885341801	933.676939893393	39.320531634537	382.212036524149	1006.966124086599	35.252263118924	300.872894642068	1090.686599586823	96.030906772038	327.257922341886	1219.388427465039	42.283348417405	298.866688764234	1070.891853832213	1094.240079204772	94.379112277403	1259.596387581535	910.447400455309	98.370302675444	996.763913518271	1105.833709146204	706.030208188372	1046.707771132142	850.011705861538	725.336055428651	
54	1.909285714286	865.771654578055	1003.626823884887	428.007523175109	1047.946985899937	1435.407617325259	238.098464307312	1147.048907993640	1370.140259684103	402.532202955138	1057.969553054476	1443.980107700128	573.789296184076	1026.267396679836	1498.029929207405	393.425663097960	1097.996358127592	950.470113435163	544.152178339949	1080.590288775914	964.162867760546	270.084912910618	1180.144077409789	776.512631753132	516.526359608344	1139.166042063503	655.297512637830	592.476651624225	1228.651229940267	614.151481301175	515.193714433322	1246.057274600779	503.199934266966	539.316468118444	1134.346387360497	752.509576228158	295.012106872418	1044.873717635001	634.426920761451	243.609887919105	1133.468693330234	558.765285666141	303.417247367221	1135.080328730559	489.226312687406	315.200908146037	1105.918653395108	415.942755066040	310.357438184856	1012.465930949012	303.223894311612	261.392763205568	1059.210947465273	192.131916972246	335.816390463337	1172.234817369354	426.948661131474	549.680650446854	1053.519617106870	386.716663959244	615.902868283078	1039.624178292700	275.849474920747	569.816119932459	839.617413805311	210.864584347504	553.005327945798	1010.025340015846	152.181300922583	581.668841491863	902.399953426681	148.588816548452	621.540662283790	1078.120938246228	39.726526769312	601.643143747329	928.148845037443	39.337476807949	382.149141904878	1001.472702897117	35.254233846126	300.816829652602	1085.215394043610	96.053829841853	327.156782337835	1213.895434811844	42.315226054256	298.814384436447	1077.649560446580	1095.760801593502	92.097494283192	1271.436452284499	917.400500692891	97.308310749578	987.593227865160	1108.915568503882	705.134539765620	1034.355006298527	852.656622220885	725.735913154205	
55	1.922857142857	864.517299566799	1004.550647746423	426.245888703063	1049.284507390938	1435.808555747557	236.778206854917	1146.384543417408	1370.839268595694	402.474078520834	1055.370672132378	1445.186238077165	572.459034637019	1025.873282590319	1498.758373240965	391.892851698052	1095.892460841151	951.765398827421	544.196261080654	1080.388727278167	964.646968836311	270.042145818258	1179.748959658214	779.728377999107	516.516495238576	1140.646697421547	658.115919317238	592.761626086315	1230.349514723649	617.927629742980	515.339541127774	1249.830507731061	507.939378303316	539.715494301651	1131.945903776574	751.985305262816	295.459037438246	1041.424915040030	634.723797481622	243.533127108600	1128.905499700199	558.260267302976	303.750587202527	1129.718712847166	488.920657234262	315.567338902573	1100.597755662097	415.930484646562	310.434329700568	1007.071044054347	303.291487485725	261.410654720534	1053.833288941625	192.211445969842	335.888368008325	1178.495448479883	429.752050841909	550.229438231871	1061.608889299290	384.969585447743	616.538254721467	1051.977156516124	273.596566202721	570.502857227149	854.690423737809	200.493982990753	553.832208049341	1027.134179964821	148.898237774796	582.365512284402	919.980891724304	141.035488773571	622.457898375713	1099.771494331330	39.701662757451	602.597465325477	922.618592195034	39.330032799599	382.110368439794	995.971801715059	35.254684729559	300.778498245627	1079.731610970307	96.084440697384	327.089970385008	1208.391394149957	42.374187000685	298.774601352325	1084.022015896794	1097.274542730765	90.157237854339	1282.686309935787	924.424899628014	96.592097469422	978.838727577309	1111.942503937385	704.067262197400	1022.893935933513	855.339329227019	725.779739762263	
56	1.936428571429	863.284130344255	1005.485592090977	424.586100229697	1050.657776495727	1436.163390331292	235.612722100903	1145.783110173244	1371.479675891961	402.520900730475	1052.912195830508	1446.329052891975	571.238551895865	1025.519119846364	1499.430024875994	390.500873436113	1093.748436882552	952.983183885731	544.414111002724	1080.297134943746	965.084769876192	270.148941240348	1178.915424886062	782.450457200778	516.805786562212	1141.350790539607	660.560612206636	593.319065800238	1231.057543100875	621.056615763008	515.726477507234	1252.439768601297	512.346734460808	540.370258262737	1129.456705469344	751.447834311557	296.364676982634	1037.993223316865	635.040322723463	243.559442963791	1124.187168859192	557.759781486324	304.351430091620	1124.139265313241	488.630271596477	316.159620102730	1095.132774573874	415.939281262018	310.662864267049	1001.644585391733	303.337009575833	261.514435248901	1048.413193914071	192.288541187264	336.057000847992	1184.076374478642	432.167909272992	551.049235272003	1069.666104574276	382.143646624447	617.582990970347	1064.975701849459	270.438067424057	571.514451340300	871.257242067030	188.146415650714	555.134887866377	1045.737876428179	144.771462311097	583.399636435317	939.333796388079	132.021154723640	623.786596353997	1123.462623169585	39.527413263495	603.831307357093	917.090796986271	39.298319105137	382.093219256550	990.465555574171	35.250495860778	300.755433398361	1074.236648990501	96.119213906393	327.056381265431	1202.879645189614	42.457786457421	298.748223865824	1090.006336543072	1098.726614723394	88.530926630846	1293.335660093150	931.456178358310	96.203905543357	970.541982595100	1114.827234073151	702.837159462497	1012.321099242915	857.949146193362	725.531011319860	
